# xmcd
#
# Track frame offsets:
#	150
#	15966
#	27955
#	39788
#	56289
#	66669
#	81604
#	93269
#	108756
#	122225
#	138320
#	151315
#	166437
#
# Disc length: 2417 seconds
#
# Revision: 0
# Processed by: cddbd v1.5.2PL0 Copyright (c) Steve Scherf et al.
# Submitted via: EasyCDDAExtractor 8.0.0.2
#
DISCID=9f096f0d
DTITLE=Manno e Magno - Por causa dela
DYEAR=2006
DGENRE=Sertanejo
TTITLE0=Por causa dela (Teodoro e Sampaio)
TTITLE1=Ela trabalha comigo
TTITLE2=Cara bonita
TTITLE3=Na bundinha
TTITLE4=Papo virtual
TTITLE5=A Caminhonete
TTITLE6=Tema de novela
TTITLE7=Pe na bunda
TTITLE8=Quando a gente ama
TTITLE9=De pai para filho
TTITLE10=Voce em minha vida - ao vivo
TTITLE11=O futuro do planeta
TTITLE12=BR 2
EXTD=
EXTT0=
EXTT1=
EXTT2=
EXTT3=
EXTT4=
EXTT5=
EXTT6=
EXTT7=
EXTT8=
EXTT9=
EXTT10=
EXTT11=
EXTT12=
PLAYORDER=
